<svg width="25" height="25" viewBox="0 0 25 25" fill="none" xmlns="http://www.w3.org/2000/svg">
<path d="M22.5 11.4899V5.16994C22.5 3.96994 21.52 3.07994 20.33 3.17994H20.27C18.17 3.35994 14.98 4.42994 13.2 5.54994L13.03 5.65994C12.74 5.83994 12.26 5.83994 11.97 5.65994L11.72 5.50994C9.94 4.39994 6.76 3.33994 4.66 3.16994C3.47 3.06994 2.5 3.96994 2.5 5.15994V17.2399C2.5 18.1999 3.28 19.0999 4.24 19.2199L4.53 19.2599C6.7 19.5499 10.05 20.6499 11.97 21.6999L12.01 21.7199C12.28 21.8699 12.71 21.8699 12.97 21.7199C14.89 20.6599 18.25 19.5499 20.43 19.2599L20.76 19.2199C21.72 19.0999 22.5 18.1999 22.5 17.2399V15.5199" stroke="#383426" stroke-width="1.5" stroke-linecap="round" stroke-linejoin="round"/>
<path d="M12.5 5.98999V20.99" stroke="#383426" stroke-width="1.5" stroke-linecap="round" stroke-linejoin="round"/>
<path d="M8.25 8.98999H6" stroke="#383426" stroke-width="1.5" stroke-linecap="round" stroke-linejoin="round"/>
<path d="M9 11.99H6" stroke="#383426" stroke-width="1.5" stroke-linecap="round" stroke-linejoin="round"/>
</svg>
