<svg width="25" height="25" viewBox="0 0 25 25" fill="none" xmlns="http://www.w3.org/2000/svg">
<path d="M13.1801 4.46C13.6601 5.17 13.9401 6.02 13.9401 6.94C13.9301 9.34 12.0401 11.29 9.66006 11.37C9.56006 11.36 9.44006 11.36 9.33006 11.37C6.95006 11.29 5.06006 9.34 5.06006 6.94C5.06006 4.49 7.04006 2.5 9.50006 2.5" stroke="#383426" stroke-width="1.5" stroke-linecap="round" stroke-linejoin="round"/>
<path d="M16.91 4.5C18.85 4.5 20.41 6.07 20.41 8C20.41 9.89 18.91 11.43 17.04 11.5C16.96 11.49 16.87 11.49 16.78 11.5" stroke="#383426" stroke-width="1.5" stroke-linecap="round" stroke-linejoin="round"/>
<path d="M4.65997 15.06C2.23997 16.68 2.23997 19.32 4.65997 20.93C7.40997 22.77 11.92 22.77 14.67 20.93C17.09 19.31 17.09 16.67 14.67 15.06C11.93 13.23 7.41997 13.23 4.65997 15.06Z" stroke="#383426" stroke-width="1.5" stroke-linecap="round" stroke-linejoin="round"/>
<path d="M18.8401 20.5C19.5601 20.35 20.2401 20.06 20.8001 19.63C22.3601 18.46 22.3601 16.53 20.8001 15.36C20.2501 14.94 19.5801 14.66 18.8701 14.5" stroke="#383426" stroke-width="1.5" stroke-linecap="round" stroke-linejoin="round"/>
</svg>
