<svg width="25" height="25" viewBox="0 0 25 25" fill="none" xmlns="http://www.w3.org/2000/svg">
<path d="M2.5 8.28996C2.5 5.12996 3.55 4.07996 6.71 4.07996H13.03C16.19 4.07996 17.24 5.12996 17.24 8.28996V16.71C17.24 19.87 16.19 20.92 13.03 20.92H6.71C3.55 20.92 2.5 18.82 2.5 16.71V12.62" stroke="#383426" stroke-width="1.5" stroke-linecap="round" stroke-linejoin="round"/>
<path d="M20.0202 17.6L17.2402 15.65V9.34001L20.0202 7.39001C21.3802 6.44001 22.5002 7.02001 22.5002 8.69001V16.31C22.5002 17.98 21.3802 18.56 20.0202 17.6Z" stroke="#383426" stroke-width="1.5" stroke-linecap="round" stroke-linejoin="round"/>
<path d="M13.5 10C13.5 9.17 12.83 8.5 12 8.5C11.17 8.5 10.5 9.17 10.5 10C10.5 10.83 11.17 11.5 12 11.5" stroke="#383426" stroke-width="1.5" stroke-linecap="round" stroke-linejoin="round"/>
</svg>
