<svg width="21" height="20" viewBox="0 0 21 20" fill="none" xmlns="http://www.w3.org/2000/svg">
<g clip-path="url(#clip0_152_30)">
<path d="M15.45 14.9499C14.0255 16.0358 12.291 16.6373 10.5 16.6666C4.66671 16.6666 1.33337 9.99992 1.33337 9.99992C2.36995 8.06816 3.80765 6.38042 5.55004 5.04992M8.75004 3.53325C9.32365 3.39898 9.91093 3.33187 10.5 3.33325C16.3334 3.33325 19.6667 9.99992 19.6667 9.99992C19.1609 10.9463 18.5576 11.8372 17.8667 12.6583M12.2667 11.7666C12.0378 12.0122 11.7618 12.2092 11.4552 12.3459C11.1485 12.4825 10.8175 12.556 10.4818 12.5619C10.1461 12.5678 9.81268 12.5061 9.50138 12.3803C9.19009 12.2546 8.90731 12.0674 8.66991 11.83C8.43252 11.5926 8.24537 11.3099 8.11963 10.9986C7.99389 10.6873 7.93215 10.3539 7.93807 10.0182C7.94399 9.6825 8.01746 9.35146 8.1541 9.04479C8.29074 8.73813 8.48775 8.46213 8.73337 8.23325M1.33337 0.833252L19.6667 19.1666" stroke="#3d3d3d" stroke-width="2" stroke-linecap="round" stroke-linejoin="round"/>
</g>
<defs>
<clipPath id="clip0_152_30">
<rect width="20" height="20" fill="white" transform="translate(0.5)"/>
</clipPath>
</defs>
</svg>
