<svg width="26" height="26" viewBox="0 0 26 26" fill="none" xmlns="http://www.w3.org/2000/svg">
<path d="M14.3202 3.57355C16.7148 3.19689 19.2591 3.97617 21.0438 5.87961C23.8891 8.93077 23.7212 13.7378 20.6704 16.5731C18.5401 18.5499 15.5699 19.0766 13.0097 18.1767L8.13859 22.7095C7.78658 23.0474 7.10966 23.2339 6.63239 23.1472L4.46419 22.7713C3.74812 22.6462 3.10226 21.9432 3.01745 21.2198L2.79372 19.0307C2.74051 18.5486 2.99376 17.887 3.33542 17.5587L4.49383 16.4785L8.18624 13.0352C7.47747 10.4089 8.20004 7.48234 10.3303 5.50549" stroke="#292D32" stroke-width="1.5" stroke-miterlimit="10" stroke-linecap="round" stroke-linejoin="round"/>
<path d="M7.68848 18.6912L9.90681 21.07" stroke="#292D32" stroke-width="1.5" stroke-miterlimit="10" stroke-linecap="round" stroke-linejoin="round"/>
<path d="M15.5204 12.4707C16.3483 12.4996 17.0429 11.8519 17.0718 11.024C17.1007 10.196 16.453 9.50143 15.6251 9.47252C14.7971 9.4436 14.1025 10.0913 14.0736 10.9193C14.0447 11.7472 14.6924 12.4418 15.5204 12.4707Z" stroke="#292D32" stroke-width="1.5" stroke-linecap="round" stroke-linejoin="round"/>
</svg>
